<?xml version="1.0" standalone="no"?><!DOCTYPE svg PUBLIC "-//W3C//DTD SVG 1.1//EN" "http://www.w3.org/Graphics/SVG/1.1/DTD/svg11.dtd"><svg width="200" height="200" viewBox="0 0 200 200" version="1.1" xmlns="http://www.w3.org/2000/svg" xmlns:xlink="http://www.w3.org/1999/xlink"><defs><style type="text/css"><![CDATA[
@font-face { font-family: ifont; src: url("//at.alicdn.com/t/font_1442373896_4754455.eot?#iefix") format("embedded-opentype"), url("//at.alicdn.com/t/font_1442373896_4754455.woff") format("woff"), url("//at.alicdn.com/t/font_1442373896_4754455.ttf") format("truetype"), url("//at.alicdn.com/t/font_1442373896_4754455.svg#ifont") format("svg"); }

]]></style></defs><g class="transform-group"><g transform="scale(0.1953125, 0.1953125)"><path d="M942.322 321.293c-23.367-56.317-57.817-107.995-100.951-151.129s-94.816-77.589-151.129-100.951c-56.317-23.367-117.281-35.5-178.238-35.5-60.961 0-121.919 12.135-178.238 35.5-56.317 23.367-107.995 57.817-151.129 100.951-43.137 43.137-77.589 94.816-100.951 151.129-23.367 56.317-35.5 117.281-35.5 178.238 0 60.961 12.135 121.919 35.5 178.238 23.367 56.317 57.817 107.995 100.951 151.129 43.137 43.137 94.816 77.589 151.129 100.951 56.317 23.367 117.281 35.5 178.238 35.5 60.961 0 121.919-12.135 178.238-35.5 56.317-23.367 107.995-57.817 151.129-100.951 43.137-43.137 77.589-94.816 100.951-151.129 23.367-56.317 35.5-117.281 35.5-178.238 0-60.961-12.135-121.919-35.5-178.238zM736.524 653.059c-7.042 36.848-45.238 73.84-112.337 83.878-87.472 13.029-337.008-141.993-337.008-349.59 3.147-101.104 39.393-125.815 84.326-125.815 44.784 0 95.707 128.064 70.251 139.744-20.969 9.735-57.213 13.029-56.165 56.016 0.597 28.16 142.294 183.634 168.503 181.681 44.939-2.997 35.201-55.122 70.251-69.797 26.511-11.232 119.226 46.88 112.19 83.878z" fill="#272636"></path></g></g></svg>