<?xml version="1.0" standalone="no"?><!DOCTYPE svg PUBLIC "-//W3C//DTD SVG 1.1//EN" "http://www.w3.org/Graphics/SVG/1.1/DTD/svg11.dtd"><svg width="200" height="200" viewBox="0 0 200 200" version="1.1" xmlns="http://www.w3.org/2000/svg" xmlns:xlink="http://www.w3.org/1999/xlink"><defs><style type="text/css"><![CDATA[
@font-face { font-family: ifont; src: url("//at.alicdn.com/t/font_1442373896_4754455.eot?#iefix") format("embedded-opentype"), url("//at.alicdn.com/t/font_1442373896_4754455.woff") format("woff"), url("//at.alicdn.com/t/font_1442373896_4754455.ttf") format("truetype"), url("//at.alicdn.com/t/font_1442373896_4754455.svg#ifont") format("svg"); }

]]></style></defs><g class="transform-group"><g transform="scale(0.1953125, 0.1953125)"><path d="M509.338381 178.564885c-139.398864 0-252.381078 110.611214-252.381078 247.091608 0 136.461975 112.982214 247.088538 252.381078 247.088538 139.40398 0 252.385171-110.62554 252.385171-247.088538C761.724575 289.177122 648.742361 178.564885 509.338381 178.564885L509.338381 178.564885zM217.911008 520.502651 217.911008 292.384164c-3.193739 0-6.361895 0.130983-9.491165 0.379647 51.718919-112.275109 166.908404-190.467983 300.957423-190.467983 134.044926 0 249.239528 78.193897 300.954353 190.467983-3.12927-0.248663-6.29231-0.379647-9.491165-0.379647l0 228.118488c64.374146 0 116.594485-51.072189 116.594485-114.054639 0-42.777269-24.088628-80.049151-59.705823-99.571786C807.608601 165.695786 670.775166 64.292282 509.37829 64.292282c-161.396877 0-298.222125 101.395318-348.347756 242.570641-35.629475 19.519566-59.708893 56.798611-59.708893 99.580996C101.32164 469.429439 153.503093 520.502651 217.911008 520.502651L217.911008 520.502651zM761.191432 651.275044c-65.949015 60.258409-154.48956 97.154737-251.853052 97.154737-97.18032 0-185.571463-36.761252-251.481591-96.818069C139.89619 711.036126 62.453401 816.805054 62.453401 960.489524l896.837832 0C959.291233 816.537971 880.400464 710.640106 761.191432 651.275044L761.191432 651.275044zM761.191432 651.275044" fill="#272636"></path></g></g></svg>