<?xml version="1.0" standalone="no"?><!DOCTYPE svg PUBLIC "-//W3C//DTD SVG 1.1//EN" "http://www.w3.org/Graphics/SVG/1.1/DTD/svg11.dtd"><svg width="200" height="200" viewBox="0 0 200 200" version="1.1" xmlns="http://www.w3.org/2000/svg" xmlns:xlink="http://www.w3.org/1999/xlink"><defs><style type="text/css"><![CDATA[
@font-face { font-family: ifont; src: url("//at.alicdn.com/t/font_1442373896_4754455.eot?#iefix") format("embedded-opentype"), url("//at.alicdn.com/t/font_1442373896_4754455.woff") format("woff"), url("//at.alicdn.com/t/font_1442373896_4754455.ttf") format("truetype"), url("//at.alicdn.com/t/font_1442373896_4754455.svg#ifont") format("svg"); }

]]></style></defs><g class="transform-group"><g transform="scale(0.1953125, 0.1953125)"><path d="M864.0752 765.2416c0 0 159.9248-142.2096 159.9248-217.1728s-71.6032-162.8784-159.9248-162.8784-159.9216 87.9152-159.9216 162.8784S864.0752 765.2416 864.0752 765.2416zM864.1872 466.4256c29.8288 0 54.0112 24.1744 54.0112 53.9936 0 29.8224-24.1824 53.9936-54.0112 53.9936-29.832 0-54.0112-24.1712-54.0112-53.9936C810.176 490.6 834.3552 466.4256 864.1872 466.4256zM861.688 827.0368c-15.9936 0-30.6432 5.64-42.0176 14.9968L452.6112 477.0352l-0.0816 0.0816-0.2144-0.7936-225.784 58.5632c-6.4176-28.9472-32.6272-50.6288-64-50.6288-36.1824 0-65.512 28.832-65.512 64.3968 0 35.5648 29.3296 64.3936 65.512 64.3936 24.1312 0 45.2016-12.832 56.5696-31.9248l219.5872-56.9536 358.424 356.4144c-0.6096 3.5296-0.944 7.1504-0.944 10.8496 0 35.5648 29.3296 64.3968 65.5168 64.3968 36.1792 0 65.512-28.832 65.512-64.3968C927.2 855.8688 897.8672 827.0368 861.688 827.0368zM163.0352 570.4496c-12.1536 0-22.0064-9.536-22.0064-21.3008 0-11.7616 9.8528-21.3008 22.0064-21.3008 12.1504 0 22.0032 9.5392 22.0032 21.3008C185.04 560.9136 175.1856 570.4496 163.0352 570.4496zM861.1856 913.2288c-12.1536 0-22.0032-9.5392-22.0032-21.3008 0-11.7616 9.8496-21.2976 22.0032-21.2976s22.0032 9.536 22.0032 21.2976C883.1904 903.6896 873.3408 913.2288 861.1856 913.2288zM159.9216 448.2224c0 0 159.9248-142.2096 159.9248-217.1728S248.248 68.1712 159.9216 68.1712C71.6 68.1712 0 156.0864 0 231.0496S159.9216 448.2224 159.9216 448.2224zM160.0352 149.4048c29.8288 0 54.0112 24.1712 54.0112 53.9936 0 29.8192-24.1824 53.9936-54.0112 53.9936-29.8288 0-54.0144-24.1744-54.0144-53.9936C106.0208 173.576 130.2064 149.4048 160.0352 149.4048z" fill="#272636"></path></g></g></svg>