<?xml version="1.0" standalone="no"?><!DOCTYPE svg PUBLIC "-//W3C//DTD SVG 1.1//EN" "http://www.w3.org/Graphics/SVG/1.1/DTD/svg11.dtd"><svg width="200" height="200" viewBox="0 0 200 200" version="1.1" xmlns="http://www.w3.org/2000/svg" xmlns:xlink="http://www.w3.org/1999/xlink"><defs><style type="text/css"><![CDATA[
@font-face { font-family: ifont; src: url("//at.alicdn.com/t/font_1442373896_4754455.eot?#iefix") format("embedded-opentype"), url("//at.alicdn.com/t/font_1442373896_4754455.woff") format("woff"), url("//at.alicdn.com/t/font_1442373896_4754455.ttf") format("truetype"), url("//at.alicdn.com/t/font_1442373896_4754455.svg#ifont") format("svg"); }

]]></style></defs><g class="transform-group"><g transform="scale(0.1953125, 0.1953125)"><path d="M93.100024 651.618316l279.282681 0 0 278.577626L93.100024 930.195942 93.100024 651.618316zM0.023534 1023.994883l465.438731 0L465.462265 558.537733 0.023534 558.537733 0.023534 1023.994883zM186.17856 744.700946l93.077513 0 0 93.080583-93.077513 0 0-93.080583ZM744.693781 930.9143l93.128678 0 0 93.080583-93.128678 0 0-93.080583ZM930.898949 930.9143l93.077513 0 0 93.080583-93.077513 0 0-93.080583ZM930.888716 558.54285 930.888716 651.624456 837.811203 651.624456 837.811203 558.54285 558.528522 558.54285 558.528522 1024 651.606035 1024 651.606035 744.705039 744.682525 744.705039 744.682525 837.837811 1023.966229 837.837811 1023.966229 558.54285ZM93.100024 93.080583l279.282681 0 0 279.294961L93.100024 372.375544 93.100024 93.080583zM0.023534 465.456127l465.438731 0L465.462265 0 0.023534 0 0.023534 465.456127zM186.17856 186.162189l93.077513 0 0 93.080583-93.077513 0 0-93.080583ZM651.616268 93.080583l279.282681 0 0 279.294961L651.616268 372.375544 651.616268 93.080583zM558.538755 465.456127l465.437707 0L1023.976462 0 558.538755 0 558.538755 465.456127zM744.693781 186.162189l93.128678 0 0 93.080583-93.128678 0 0-93.080583Z" fill="#272636"></path></g></g></svg>