<?xml version="1.0" standalone="no"?><!DOCTYPE svg PUBLIC "-//W3C//DTD SVG 1.1//EN" "http://www.w3.org/Graphics/SVG/1.1/DTD/svg11.dtd"><svg width="200" height="200" viewBox="0 0 200 200" version="1.1" xmlns="http://www.w3.org/2000/svg" xmlns:xlink="http://www.w3.org/1999/xlink"><defs><style type="text/css"><![CDATA[
@font-face { font-family: ifont; src: url("//at.alicdn.com/t/font_1442373896_4754455.eot?#iefix") format("embedded-opentype"), url("//at.alicdn.com/t/font_1442373896_4754455.woff") format("woff"), url("//at.alicdn.com/t/font_1442373896_4754455.ttf") format("truetype"), url("//at.alicdn.com/t/font_1442373896_4754455.svg#ifont") format("svg"); }

]]></style></defs><g class="transform-group"><g transform="scale(0.1953125, 0.1953125)"><path d="M911.36 28.16 373.76 28.16c-50.8928 0-92.16 41.2672-92.16 92.16l0 430.08c0 50.8928 41.2672 92.16 92.16 92.16l245.76 0 184.32 184.32 76.8-184.32 30.72 0c50.8928 0 92.16-41.2672 92.16-92.16l0-430.08C1003.52 69.4272 962.2528 28.16 911.36 28.16zM220.16 550.4l0-276.48L112.64 273.92c-50.8928 0-92.16 41.2672-92.16 92.16l0 368.64c0 50.8928 41.2672 92.16 92.16 92.16l0 168.96 199.68-168.96 168.96 0c50.8928 0 92.16-41.2672 92.16-92.16l0-30.72L373.76 704C288.9728 704 220.16 635.1872 220.16 550.4z" fill="#272636"></path></g></g></svg>